<svg width="50" height="48" viewBox="0 0 50 48" fill="none" xmlns="http://www.w3.org/2000/svg">
<path d="M32.2917 28H30.6458L30.0625 27.46C32.1042 25.18 33.3333 22.22 33.3333 19C33.3333 11.82 27.2708 6 19.7917 6C12.3125 6 6.25 11.82 6.25 19C6.25 26.18 12.3125 32 19.7917 32C23.1458 32 26.2292 30.82 28.6042 28.86L29.1667 29.42V31L39.5833 40.98L42.6875 38L32.2917 28V28ZM19.7917 28C14.6042 28 10.4167 23.98 10.4167 19C10.4167 14.02 14.6042 10 19.7917 10C24.9792 10 29.1667 14.02 29.1667 19C29.1667 23.98 24.9792 28 19.7917 28Z" fill="black"/>
</svg>
